<?xml version="1.0" encoding="UTF-8"?>
<svg id="BACKGROUND" xmlns="http://www.w3.org/2000/svg" xmlns:xlink="http://www.w3.org/1999/xlink" viewBox="0 0 1723.71 1042.35">
  <defs>
    <style>
      .cls-1 {
        fill: url(#Degradado_sin_nombre_5-4);
      }

      .cls-1, .cls-2, .cls-3, .cls-4, .cls-5, .cls-6, .cls-7, .cls-8, .cls-9, .cls-10, .cls-11, .cls-12, .cls-13, .cls-14, .cls-15, .cls-16, .cls-17, .cls-18, .cls-19, .cls-20 {
        stroke-width: 0px;
      }

      .cls-2 {
        fill: url(#Degradado_sin_nombre_5-7);
      }

      .cls-3 {
        fill: url(#Degradado_sin_nombre_5-13);
      }

      .cls-4 {
        fill: url(#Degradado_sin_nombre_5-12);
      }

      .cls-5 {
        fill: url(#Degradado_sin_nombre_5-2);
      }

      .cls-6 {
        fill: none;
      }

      .cls-7 {
        fill: url(#Degradado_sin_nombre_5-3);
      }

      .cls-8 {
        fill: url(#Degradado_sin_nombre_5-8);
      }

      .cls-9 {
        fill: url(#Degradado_sin_nombre_407);
      }

      .cls-10 {
        fill: url(#Degradado_sin_nombre_5-9);
      }

      .cls-11 {
        fill: url(#Degradado_sin_nombre_5-15);
      }

      .cls-12 {
        fill: url(#Degradado_sin_nombre_5-5);
      }

      .cls-21 {
        clip-path: url(#clippath);
      }

      .cls-13 {
        fill: url(#Degradado_sin_nombre_400);
      }

      .cls-14 {
        fill: url(#Degradado_sin_nombre_5-11);
      }

      .cls-15 {
        fill: url(#Degradado_sin_nombre_415);
      }

      .cls-16 {
        fill: url(#Degradado_sin_nombre_5-10);
      }

      .cls-17 {
        fill: url(#Degradado_sin_nombre_5);
      }

      .cls-18 {
        fill: url(#Degradado_sin_nombre_5-6);
      }

      .cls-19 {
        fill: url(#Degradado_sin_nombre_5-14);
      }

      .cls-20 {
        fill: url(#Degradado_sin_nombre_5-16);
      }
    </style>
    <clipPath id="clippath">
      <rect class="cls-6" x="52.66" width="1581.23" height="861.38"/>
    </clipPath>
    <linearGradient id="Degradado_sin_nombre_407" data-name="Degradado sin nombre 407" x1="840.51" y1="431.36" x2="840.51" y2="284.59" gradientUnits="userSpaceOnUse">
      <stop offset="0" stop-color="#81a8cb"/>
      <stop offset="1" stop-color="#608eb0"/>
    </linearGradient>
    <linearGradient id="Degradado_sin_nombre_415" data-name="Degradado sin nombre 415" x1="829.46" y1="559.91" x2="829.46" y2="204.74" gradientUnits="userSpaceOnUse">
      <stop offset="0" stop-color="#81a8cb"/>
      <stop offset=".04" stop-color="#76a2c7"/>
      <stop offset=".15" stop-color="#5992bc"/>
      <stop offset=".25" stop-color="#4889b6"/>
      <stop offset=".33" stop-color="#4286b4"/>
      <stop offset="1" stop-color="#2b668d"/>
    </linearGradient>
    <linearGradient id="Degradado_sin_nombre_400" data-name="Degradado sin nombre 400" x1="841.86" y1="938.44" x2="841.86" y2="506.55" gradientUnits="userSpaceOnUse">
      <stop offset="0" stop-color="#1d2623"/>
      <stop offset="1" stop-color="#29414d"/>
    </linearGradient>
    <linearGradient id="Degradado_sin_nombre_5" data-name="Degradado sin nombre 5" x1="109.58" y1="620.33" x2="109.58" y2="961.87" gradientUnits="userSpaceOnUse">
      <stop offset="0" stop-color="#142023"/>
      <stop offset="1" stop-color="#29414d"/>
    </linearGradient>
    <linearGradient id="Degradado_sin_nombre_5-2" data-name="Degradado sin nombre 5" x1="217.81" y1="579.57" x2="217.81" y2="921.11" xlink:href="#Degradado_sin_nombre_5"/>
    <linearGradient id="Degradado_sin_nombre_5-3" data-name="Degradado sin nombre 5" x1="299.33" y1="637.13" x2="299.33" y2="978.68" xlink:href="#Degradado_sin_nombre_5"/>
    <linearGradient id="Degradado_sin_nombre_5-4" data-name="Degradado sin nombre 5" x1="371.01" y1="619.62" x2="371.01" y2="961.17" xlink:href="#Degradado_sin_nombre_5"/>
    <linearGradient id="Degradado_sin_nombre_5-5" data-name="Degradado sin nombre 5" x1="586.63" y1="613.15" x2="586.63" y2="954.7" xlink:href="#Degradado_sin_nombre_5"/>
    <linearGradient id="Degradado_sin_nombre_5-6" data-name="Degradado sin nombre 5" x1="693.32" y1="675" x2="693.32" y2="1016.54" xlink:href="#Degradado_sin_nombre_5"/>
    <linearGradient id="Degradado_sin_nombre_5-7" data-name="Degradado sin nombre 5" x1="879.59" x2="879.59" xlink:href="#Degradado_sin_nombre_5"/>
    <linearGradient id="Degradado_sin_nombre_5-8" data-name="Degradado sin nombre 5" x1="966.83" y1="675" x2="966.83" y2="1016.54" xlink:href="#Degradado_sin_nombre_5"/>
    <linearGradient id="Degradado_sin_nombre_5-9" data-name="Degradado sin nombre 5" x1="1226.85" y1="637.13" x2="1226.85" y2="978.68" xlink:href="#Degradado_sin_nombre_5"/>
    <linearGradient id="Degradado_sin_nombre_5-10" data-name="Degradado sin nombre 5" x1="1333.67" y1="616.65" x2="1333.67" y2="958.2" xlink:href="#Degradado_sin_nombre_5"/>
    <linearGradient id="Degradado_sin_nombre_5-11" data-name="Degradado sin nombre 5" x1="1564.18" y1="585.73" x2="1564.18" y2="927.28" xlink:href="#Degradado_sin_nombre_5"/>
    <linearGradient id="Degradado_sin_nombre_5-12" data-name="Degradado sin nombre 5" x1="1626.02" y1="619.62" x2="1626.02" y2="961.17" xlink:href="#Degradado_sin_nombre_5"/>
    <linearGradient id="Degradado_sin_nombre_5-13" data-name="Degradado sin nombre 5" x1="450.29" y1="579.57" x2="450.29" y2="921.11" xlink:href="#Degradado_sin_nombre_5"/>
    <linearGradient id="Degradado_sin_nombre_5-14" data-name="Degradado sin nombre 5" x1="787.14" y1="579.57" x2="787.14" y2="921.11" xlink:href="#Degradado_sin_nombre_5"/>
    <linearGradient id="Degradado_sin_nombre_5-15" data-name="Degradado sin nombre 5" x1="1100.35" y1="621.99" x2="1100.35" y2="963.53" xlink:href="#Degradado_sin_nombre_5"/>
    <linearGradient id="Degradado_sin_nombre_5-16" data-name="Degradado sin nombre 5" x1="1460.17" y1="668.66" x2="1460.17" y2="1010.2" xlink:href="#Degradado_sin_nombre_5"/>
  </defs>
  <g class="cls-21">
    <g>
      <path class="cls-6" d="m659.42,45.88c.04.07.09.13.14.2.01-.02.03-.04.04-.06l-.18-.14Z"/>
      <path class="cls-9" d="m1655.91,346.46l-90.56-55.01-101.69,53.35-127.28,32.9-291.58,40.45-160.86-83.85-266.15-59.98-102.67,59.98-138.36-16.18-184.66,68.84-139.43-52.66-27.54,51.16c.22,15.38.55,31.27.93,47.41l1.71,86.96h.56c.49,19.68.92,39.08,1.19,57.72.13,9.13.59,19.13,6.72,25.9l1615.93,67.41c.66-50.34,1.31-100.68,1.97-151.02h1.79v-173.37Z"/>
      <polygon class="cls-15" points="15.21 616.69 52.66 494.83 158.87 543.58 281.73 459.82 441.34 482.19 571.8 449.82 683.26 466.03 944.6 344.8 1038.89 235.73 1180.07 199.76 1275.29 334.3 1358.76 393.16 1523.1 426.35 1643.71 374.8 1643.71 691.61 20 691.61 15.21 616.69"/>
      <path class="cls-13" d="m448.8,562.04c-.46-.53-.94-1.05-1.39-1.59.61.03,1.17-.08,1.6-.39l-.21,1.98ZM0,893.25v-286.73l99.21-38.03,94.36-130.3,65.55,37.04,103.57,87.27,115.74-16,100.02-51.04,215.93,109.39,150.21-81.69,134.39,95.35,107.94-35.34,85.02-46.68,141.7-63.92,145.03,60.58,75.2-50.97h49.82v446.97L0,893.25Z"/>
    </g>
    <g>
      <polygon class="cls-17" points="170.04 882.27 201.31 882.26 151.87 749.09 170.93 749.09 141.45 679.26 155.45 679.26 109.58 586.15 63.72 679.26 77.72 679.26 48.23 749.09 67.29 749.09 17.85 882.26 49.12 882.27 11.9 987.68 109.58 987.68 207.27 987.68 170.04 882.27"/>
      <polygon class="cls-5" points="278.27 841.5 309.54 841.5 260.1 708.33 279.16 708.33 249.68 638.49 263.67 638.49 217.81 545.39 171.94 638.49 185.94 638.49 156.46 708.33 175.52 708.33 126.08 841.5 157.35 841.5 120.12 946.92 217.81 946.92 315.49 946.92 278.27 841.5"/>
      <polygon class="cls-7" points="359.79 899.07 391.06 899.07 341.62 765.89 360.68 765.89 331.2 696.06 345.19 696.06 299.33 602.95 253.47 696.06 267.46 696.06 237.98 765.89 257.04 765.89 207.6 899.07 238.87 899.07 201.65 1004.48 299.33 1004.48 397.02 1004.48 359.79 899.07"/>
      <polygon class="cls-1" points="431.47 881.56 462.74 881.56 413.3 748.38 432.36 748.38 402.88 678.55 416.88 678.55 371.01 585.44 325.15 678.55 339.15 678.55 309.66 748.38 328.72 748.38 279.28 881.56 310.56 881.56 273.33 986.97 371.01 986.97 468.7 986.97 431.47 881.56"/>
      <polygon class="cls-12" points="647.09 875.09 678.36 875.09 628.92 741.91 647.98 741.91 618.5 672.08 632.5 672.08 586.63 578.97 540.77 672.08 554.77 672.08 525.28 741.91 544.34 741.91 494.9 875.09 526.17 875.09 488.95 980.5 586.63 980.5 684.32 980.5 647.09 875.09"/>
      <polygon class="cls-18" points="753.78 936.94 785.05 936.93 735.61 803.76 754.67 803.76 725.19 733.92 739.19 733.92 693.32 640.82 647.46 733.92 661.46 733.92 631.97 803.76 651.03 803.76 601.59 936.93 632.86 936.94 595.64 1042.35 693.32 1042.35 791.01 1042.35 753.78 936.94"/>
      <polygon class="cls-2" points="940.05 882.27 971.32 882.26 921.89 749.09 940.95 749.09 911.46 679.26 925.46 679.26 879.59 586.15 833.73 679.26 847.73 679.26 818.24 749.09 837.3 749.09 787.87 882.26 819.14 882.27 781.91 987.68 879.59 987.68 977.28 987.68 940.05 882.27"/>
      <polygon class="cls-8" points="1027.28 936.94 1058.56 936.93 1009.12 803.76 1028.18 803.76 998.69 733.92 1012.69 733.92 966.83 640.82 920.96 733.92 934.96 733.92 905.48 803.76 924.54 803.76 875.1 936.93 906.37 936.94 869.14 1042.35 966.83 1042.35 1064.51 1042.35 1027.28 936.94"/>
      <polygon class="cls-10" points="1287.31 899.07 1318.58 899.07 1269.14 765.89 1288.2 765.89 1258.72 696.06 1272.72 696.06 1226.85 602.95 1180.99 696.06 1194.98 696.06 1165.5 765.89 1184.56 765.89 1135.12 899.07 1166.39 899.07 1129.17 1004.48 1226.85 1004.48 1324.54 1004.48 1287.31 899.07"/>
      <polygon class="cls-16" points="1394.13 878.59 1425.4 878.59 1375.96 745.41 1395.02 745.41 1365.54 675.58 1379.54 675.58 1333.67 582.47 1287.81 675.58 1301.81 675.58 1272.32 745.41 1291.38 745.41 1241.94 878.59 1273.22 878.59 1235.99 984 1333.67 984 1431.36 984 1394.13 878.59"/>
      <polygon class="cls-14" points="1624.64 847.67 1655.91 847.67 1606.47 714.49 1625.53 714.49 1596.05 644.66 1610.05 644.66 1564.18 551.55 1518.32 644.66 1532.31 644.66 1502.83 714.49 1521.89 714.49 1472.45 847.67 1503.72 847.67 1466.5 953.08 1564.18 953.08 1661.87 953.08 1624.64 847.67"/>
      <polygon class="cls-4" points="1686.48 881.56 1717.75 881.56 1668.32 748.38 1687.38 748.38 1657.89 678.55 1671.89 678.55 1626.02 585.44 1580.16 678.55 1594.16 678.55 1564.67 748.38 1583.73 748.38 1534.3 881.56 1565.57 881.56 1528.34 986.97 1626.02 986.97 1723.71 986.97 1686.48 881.56"/>
      <polygon class="cls-3" points="510.75 841.5 542.02 841.5 492.59 708.33 511.65 708.33 482.16 638.49 496.16 638.49 450.29 545.39 404.43 638.49 418.43 638.49 388.94 708.33 408 708.33 358.57 841.5 389.84 841.5 352.61 946.92 450.29 946.92 547.98 946.92 510.75 841.5"/>
      <polygon class="cls-19" points="847.6 841.5 878.87 841.5 829.43 708.33 848.49 708.33 819.01 638.49 833 638.49 787.14 545.39 741.28 638.49 755.27 638.49 725.79 708.33 744.85 708.33 695.41 841.5 726.68 841.5 689.46 946.92 787.14 946.92 884.83 946.92 847.6 841.5"/>
      <polygon class="cls-11" points="1160.81 883.92 1192.08 883.92 1142.64 750.74 1161.7 750.74 1132.22 680.91 1146.22 680.91 1100.35 587.8 1054.49 680.91 1068.49 680.91 1039 750.74 1058.06 750.74 1008.62 883.92 1039.9 883.92 1002.67 989.33 1100.35 989.33 1198.04 989.33 1160.81 883.92"/>
      <polygon class="cls-20" points="1520.63 930.59 1551.9 930.59 1502.46 797.41 1521.52 797.41 1492.04 727.58 1506.04 727.58 1460.17 634.48 1414.31 727.58 1428.3 727.58 1398.82 797.41 1417.88 797.41 1368.44 930.59 1399.71 930.59 1362.49 1036.01 1460.17 1036.01 1557.86 1036.01 1520.63 930.59"/>
    </g>
  </g>
</svg>